<svg width="424" height="220" viewBox="0 0 424 220" fill="none" xmlns="http://www.w3.org/2000/svg">
<path d="M343.968 168.7C351.142 168.7 357.214 171.102 362.037 175.87C366.855 180.638 369.321 186.667 369.321 193.759C369.321 198.793 367.998 203.331 365.348 207.298C362.772 211.15 359.313 214.28 355.046 216.53C350.706 218.817 346.104 220 341.322 220H341.286C336.279 220 331.866 218.854 328.15 216.645C324.287 214.358 321.306 211.343 319.134 207.455C316.962 203.603 315.859 199.217 315.822 194.449C315.822 189.184 317.072 184.725 319.722 180.795C322.372 176.943 325.757 174.006 330.061 171.871C334.327 169.736 338.893 168.705 343.894 168.705H343.968V168.7ZM0.218331 219.535L0.144844 219.462H0.218331V219.535ZM24.097 170.375C30.6466 170.375 35.5059 171.406 38.5556 173.463C41.8304 175.677 43.3782 178.995 43.1945 183.339C42.974 186.809 41.5732 189.52 38.9644 191.389C37.8621 192.189 36.6817 192.801 35.3957 193.335C38.3398 194.021 40.8062 195.052 42.7536 196.465C45.8814 198.752 47.4246 201.881 47.3511 205.733C47.2776 210.731 45.4726 214.316 41.9774 216.41C38.5924 218.431 33.5126 219.462 26.8896 219.462H0.218331V216.866L1.10018 216.792C1.7983 216.756 2.39079 216.447 2.9052 215.992C3.38287 215.536 3.60333 214.961 3.60333 214.201L3.52984 175.755C3.52984 174.991 3.30938 174.421 2.83172 173.965C2.31731 173.468 1.72941 173.201 1.03128 173.164L0.112693 173.086V170.417L23.9914 170.38H24.1016L24.097 170.375ZM96.2935 213.815C96.6977 214.579 97.2121 215.264 97.8781 215.798C98.4292 216.332 99.0539 216.562 99.8668 216.636L100.785 216.714V219.383H83.5619V216.677H84.5172C85.3256 216.677 85.9135 216.489 86.0972 216.217C86.2442 215.987 86.1707 215.416 85.8767 214.694L80.9852 204.436H60.6752L59.3479 207.487C58.2456 210.004 57.1754 212.485 56.1099 214.961C55.9629 215.379 55.8159 215.955 56.0731 216.18C56.4038 216.484 56.955 216.636 57.8047 216.714L58.7232 216.788V219.457H47.3925V216.751L48.311 216.714C49.5971 216.677 50.7775 215.72 51.843 213.93L51.9165 213.778L67.8862 176.933L64.1705 169.266H74.9501L96.2935 213.815ZM152.663 172.741L151.891 172.929C151.009 173.118 150.421 173.426 149.976 173.845C149.498 174.342 149.314 174.876 149.314 175.599L149.388 219.305H145.672L110.532 179.032L110.605 214.082C110.605 214.804 110.826 215.343 111.267 215.835C111.707 216.291 112.295 216.558 113.108 216.673L113.953 216.788V219.379H102.917V216.746L103.762 216.631C106.044 216.286 106.338 215.067 106.338 213.962L106.265 175.672C106.265 174.678 106.008 173.344 103.688 173.003L102.843 172.888V170.297H115.905L145.084 203.782V175.599C145.048 174.605 144.754 173.27 142.471 172.929L141.626 172.814V170.223H152.663V172.741ZM200.645 213.626C201.049 214.39 201.568 215.076 202.23 215.61C202.781 216.143 203.406 216.374 204.219 216.447L205.137 216.525V219.195H187.918V216.489H188.873C189.682 216.489 190.274 216.3 190.458 216.033C190.605 215.803 190.532 215.232 190.238 214.51L185.342 204.252H165.032L163.709 207.303C162.606 209.82 161.536 212.301 160.471 214.777C160.324 215.195 160.177 215.766 160.434 215.996C160.765 216.3 161.316 216.452 162.166 216.53L163.084 216.604V219.273H151.753V216.567L152.672 216.53C153.963 216.493 155.138 215.536 156.204 213.746L156.277 213.594L172.247 176.749L168.531 169.082H179.311L200.65 213.631L200.645 213.626ZM257.644 172.552L256.872 172.741C255.99 172.929 255.402 173.238 254.957 173.657C254.479 174.154 254.295 174.687 254.295 175.41L254.369 219.116H250.653L215.513 178.843L215.586 213.893C215.586 214.62 215.807 215.154 216.247 215.646C216.688 216.102 217.276 216.374 218.089 216.484L218.934 216.599V219.19H207.897L207.934 219.153V216.562L208.743 216.447C211.025 216.102 211.319 214.882 211.319 213.778L211.246 175.484C211.246 174.49 210.989 173.155 208.669 172.814L207.732 172.699V170.108H220.886L250.065 203.593V175.41C250.029 174.416 249.735 173.081 247.452 172.741L246.607 172.626V170.03H257.644V172.552ZM314.348 172.474L313.503 172.589C312.731 172.704 312.107 172.971 311.624 173.39C311.147 173.845 310.926 174.421 310.926 175.18L311 213.626C311 214.39 311.22 214.924 311.661 215.306C312.176 215.84 312.764 216.107 313.576 216.222L314.422 216.337V218.928H298.011V216.295L298.93 216.217C299.628 216.143 300.216 215.872 300.73 215.416C301.208 214.961 301.428 214.385 301.428 213.626V196.617L274.238 196.653V213.663C274.238 214.427 274.495 214.998 274.936 215.343C275.487 215.84 276.112 216.143 276.851 216.258L277.696 216.374V218.965H261.286L261.249 219.08V216.41L262.168 216.337C262.903 216.3 263.527 216.033 264.046 215.536C264.45 215.117 264.671 214.505 264.671 213.746L264.597 175.3C264.597 174.536 264.377 173.928 263.936 173.468C263.458 173.012 262.834 172.741 262.094 172.704L261.176 172.63V169.961H277.586V172.552L276.778 172.667C276.043 172.782 275.382 173.086 274.867 173.505C274.426 173.924 274.206 174.499 274.206 175.258V192.268L301.396 192.231V175.221C301.396 174.457 301.139 173.887 300.661 173.431C300.147 172.934 299.559 172.667 298.856 172.63L297.938 172.552V169.883H314.348V172.478V172.474ZM424 180.215L421.534 181.245L421.129 180.445C420.174 178.539 418.994 177.127 417.634 176.248C416.238 175.332 414.727 174.761 413.032 174.494C411.085 174.264 409.169 174.154 407.401 174.154H401.55L401.623 213.437C401.623 214.201 401.844 214.772 402.321 215.228C402.799 215.725 403.387 215.992 404.2 216.107L405.045 216.222V218.817H388.634V216.263L389.479 216.148C391.799 215.766 392.056 214.431 392.056 213.479L391.983 174.195H386.205C384.404 174.195 382.563 174.31 380.5 174.577C378.81 174.844 377.225 175.456 375.861 176.33C374.465 177.209 373.285 178.618 372.329 180.523L371.925 181.324L369.459 180.293L374.093 169.768L419.425 169.69L423.986 180.215H424ZM341.258 173.542C339.977 173.542 338.622 173.657 337.193 173.924C333 174.839 329.946 176.975 328.141 180.219C326.189 183.689 325.233 187.578 325.307 191.775C325.307 196.124 326.115 200.165 327.7 203.828C329.725 208.366 332.743 211.647 336.642 213.552C340.505 215.536 344.703 215.766 349.484 214.201C353.016 212.752 355.629 210.349 357.209 207.068C358.863 203.713 359.676 200.013 359.676 196.124C359.676 191.586 358.757 187.431 356.952 183.731C355.152 180.146 352.538 177.361 349.227 175.493C346.912 174.2 344.234 173.551 341.258 173.546V173.542ZM13.1704 215.113H23.8031C26.1225 215.113 28.3639 214.882 30.4261 214.427C32.4884 213.971 34.252 213.055 35.6896 211.679C36.9757 210.418 37.6784 208.439 37.8254 205.844C37.8254 203.023 37.1272 200.998 35.6896 199.705C34.2199 198.37 32.3414 197.532 30.0219 197.109C27.629 196.69 25.2728 196.497 22.811 196.497H13.1704V215.113ZM70.3158 182.125C69.5442 183.878 68.8048 185.673 68.0331 187.426C66.6001 190.781 65.1625 194.177 63.6928 197.496L62.5538 200.013H78.8909L70.3158 182.125ZM172.422 187.081C170.952 190.514 169.477 193.906 168.008 197.302L166.869 199.82H183.206L174.631 181.931C173.896 183.648 173.161 185.364 172.422 187.081ZM22.4436 174.876H13.1337V192.079H22.7375C25.9756 192.153 28.6257 191.43 30.6833 189.907C32.6353 188.535 33.5907 186.437 33.5907 183.459C33.5172 181.13 33.0395 179.377 32.0796 178.157C31.0875 176.938 29.7969 176.1 28.1802 175.603C26.3384 175.106 24.5012 174.839 22.439 174.876H22.4436Z" fill="black"/>
<path d="M171.076 2.53578C171.668 3.08803 180.464 40.3929 181.258 44.139C177.474 42.1233 172.229 38.6993 168.508 36.412L144.501 21.5656C146.862 30.6686 149.163 39.7854 151.413 48.916L145.236 50.5497C144.937 50.246 135.71 13.0884 134.58 8.61978C138.025 10.295 143.307 13.6867 146.724 15.7485C155.01 20.751 163.249 25.8363 171.439 30.9999C170.823 27.9027 169.753 24.1474 168.995 20.9949C167.672 15.2791 166.29 9.58163 164.852 3.8934L171.08 2.53578H171.076Z" fill="black"/>
<path d="M103.096 24.0231C103.628 24.5707 108.474 32.4404 109.305 33.7612C114.895 42.6018 120.439 51.4747 125.932 60.3753L97.8919 53.9599C93.3862 52.9244 88.7014 51.9948 84.26 50.8028C88.2697 58.019 94.8559 66.717 99.2789 74.2783C98.1215 75.0468 94.833 77.3893 93.7536 77.7575L70.325 41.3547C83.9155 44.0653 98.5303 47.8575 112.176 50.9087C107.652 43.2185 102.237 35.0037 97.4555 27.3734L103.1 24.0185L103.096 24.0231Z" fill="black"/>
<path d="M45.9181 64.8163C46.3269 65.1385 46.7311 65.4652 47.1352 65.792C51.7328 69.5243 66.1776 81.0526 69.2778 85.4707C78.5831 98.734 59.7796 117.837 45.3761 105.633C40.0713 101.136 33.6779 95.8714 28.1756 91.2049L25.4106 88.8486L29.6361 83.8645L42.3723 94.5552C47.7599 99.0929 55.7883 107.736 62.8018 99.9766C70.0678 91.9412 59.752 85.0933 53.9741 80.238L41.6788 69.8326C43.1118 68.1759 44.5264 66.5053 45.9227 64.8209L45.9181 64.8163Z" fill="black"/>
<path d="M11.8752 119.476L12.3115 119.605C12.8673 120.925 13.4276 123.917 13.7583 125.449C11.6088 125.592 10.2126 125.716 8.4351 127.134C6.0284 129.057 5.10521 133.374 7.29605 135.776C9.43177 137.986 12.8857 137.364 14.9433 135.367C18.9024 131.52 22.4206 125.868 28.6854 125.905C33.5539 125.933 38.6613 128.809 40.6087 133.305C42.8271 138.423 41.5456 145.524 37.3109 149.298C34.0545 152.261 30.6512 152.864 26.3384 152.712C25.2591 152.537 24.74 152.629 24.6895 151.378C24.616 149.666 24.7998 147.742 24.8503 146.021C41.4813 148.704 36.8608 126.558 24.8227 134.29C21.0473 136.715 18.163 142.919 12.6009 143.835C6.64385 144.82 1.36196 140.931 0.241286 135.233C-0.456842 131.492 0.374481 127.631 2.54694 124.497C4.96743 121.031 7.95284 120.194 11.8798 119.476H11.8752Z" fill="black"/>
<path d="M302.425 25.4175C311.367 24.9205 318.303 29.4076 323.157 36.481C321.881 38.5106 320.53 41.0417 319.359 43.1587C318.165 40.333 316.989 38.0504 314.725 35.8644C311.675 32.9742 307.578 31.4095 303.353 31.52C291.852 31.8191 284.168 45.5518 290.704 55.1012C291.967 56.9421 292.821 57.8165 294.461 59.2846C294.952 59.6205 295.453 59.9381 295.963 60.2464C300.606 63.0123 304.937 62.8282 309.939 61.6178C308.786 63.8913 307.266 66.4869 306.017 68.7373C299.766 68.7603 294.217 67.1726 289.404 63.0445C285.013 59.2616 282.312 53.9185 281.899 48.1842C281.072 36.1083 290.263 26.2137 302.425 25.4175Z" fill="black"/>
<path d="M199.837 0L207.461 0.418793C210.497 5.83549 213.643 11.9793 216.505 17.5065C220.119 12.1588 223.78 6.84796 227.491 1.56472L234.982 2.03874C232.41 6.26349 227.904 12.3429 224.974 16.5723C216.946 27.8152 219.026 28.073 218.328 41.9622L211.599 41.5204L212.688 24.1427L199.837 0Z" fill="black"/>
<path d="M401.959 118.068C402.5 118.96 404.443 123.926 404.958 125.173C401.518 130.272 397.829 135.698 394.614 140.903L413.22 143.016L416.224 150.071C412.15 149.334 407.07 148.833 402.928 148.299C398.867 147.774 393.801 147.02 389.773 146.776C384.193 149.109 378.695 151.801 373.092 154.125L370.639 148.078C373.942 146.895 384.248 142.578 386.77 140.558C389.296 138.533 399.414 121.966 401.963 118.072L401.959 118.068Z" fill="black"/>
<path d="M371.379 74.5176C372.945 75.5945 385.86 92.6822 387.904 95.3192L383.082 98.9641C381.065 96.6308 378.787 93.552 376.863 91.0807C370.442 96.1062 363.979 101.081 357.476 106.005C354.936 108.113 351.634 110.538 348.979 112.591C347.693 111.123 346.14 109.006 344.919 107.427C353.939 100.239 363.552 93.032 372.706 85.9631C370.681 83.3813 368.706 80.7627 366.781 78.1073C368.292 76.9982 369.9 75.6866 371.388 74.513L371.379 74.5176Z" fill="black"/>
<path d="M347.946 52.0224C349.236 52.9751 351.629 55.1979 352.924 56.33C343.628 66.6112 334.405 76.9521 325.256 87.3622C323.704 86.207 321.582 84.2925 320.057 82.9947C329.174 73.5512 338.957 61.9078 347.946 52.0224Z" fill="black"/>
<path d="M192.116 157.489C192.419 136.964 193.949 117.267 195.657 99.1574C172.812 109.738 161.67 138.303 156.378 161.291C153.398 149.229 156.498 132.118 162.189 121.16C167.939 110.11 177.841 101.822 189.709 98.1265L190.022 98.0345V97.6893C187.96 98.1725 185.902 98.6788 183.849 99.2172C166.474 103.921 149.636 114.133 138.599 128.514C135.099 133.08 132.826 137.088 129.997 142.054C130.038 141.087 130.111 140.116 130.217 139.154C131.691 126.733 141.672 109.784 151.661 102.255C165.183 92.0655 176.004 91.481 191.836 93.3265C167.291 84.2741 141.419 90.5698 117.761 98.5269C128.394 90.3765 144.414 83.3813 157.55 80.9698C170.414 78.6089 180.56 79.5017 191.625 87.0952C182.021 75.774 163.98 67.1082 149.875 63.4587C146.945 62.6994 138.654 61.4936 136.707 60.5502C145.622 58.424 163.479 60.5133 172.178 63.3114C184.896 67.4073 192.75 72.2258 199.258 84.2005C203.236 78.4938 205.693 75.0284 210.851 70.5045C224.17 58.8106 240.87 55.3774 258.131 55.8192C262.269 55.925 266.412 55.6535 270.706 55.9572C248.168 61.9078 225.962 71.3651 208.453 87.2011C230.917 79.9527 256.459 102.126 271.312 116.494C275.809 120.843 280.388 125.192 283.598 130.599C276.548 128.482 271.845 125.081 265.383 121.45C250.442 113.051 234.532 102.563 218.039 97.7077C214.837 96.7643 211.158 96.7505 207.888 96.7321C236.319 106.544 247.149 134.221 246.928 162.556C235.51 137.235 223.247 115.748 200.011 99.3921C198.482 107.28 198.165 122.628 198.055 130.884C197.935 140.222 198.009 149.5 198.312 158.741" fill="black"/>
</svg>
