<svg width="549" height="156" viewBox="0 0 549 156" fill="none" xmlns="http://www.w3.org/2000/svg">
<path d="M162.177 0.40449C175.322 -0.0431379 189.855 0.711319 203.148 0.395267C206.721 0.310082 223.749 0.169826 226.195 0.725698C226.813 2.74192 226.454 17.1135 226.449 20.4007C226.421 29.1267 226.482 37.853 226.632 46.578C221.817 46.9675 211.045 46.6301 205.794 46.6301L161.761 46.6821C161.384 42.5756 162.598 34.1054 159.441 31.6983C155.083 28.3763 146.33 29.2529 146.16 36.2516C145.98 43.7056 146.028 50.9663 146.026 58.3457L146.034 124.231C146.045 127.681 146.06 131.131 146.123 134.577C146.16 136.607 146.459 138.24 148.337 139.422C153.612 142.744 158.089 141.274 161.517 136.396C161.7 131.165 161.508 124.543 161.506 119.232L161.498 84.3339C161.497 80.7729 161.243 67.8894 161.974 65.1125C163.546 64.1231 217.355 64.5986 223.996 64.6008C225.144 64.5525 225.352 64.5126 226.219 65.0275C226.869 66.2294 226.452 81.3611 226.444 83.943L226.434 122.917L226.464 141.466C226.498 145.532 226.727 150.433 226.361 154.418C221.597 154.642 215.362 154.462 210.517 154.457L81.4927 154.46L81.4694 154.226C80.8784 148.064 81.2211 136.906 81.2225 130.323L81.2051 48.2952C81.198 43.482 80.909 33.1329 81.3671 28.8861C81.677 26.0188 82.83 23.3076 84.6805 21.0947C86.0794 19.4243 88.4028 17.5891 90.5501 17.177C96.0892 16.1132 103.087 16.5099 108.831 16.5167L139.419 16.5158C144.505 16.5128 152.18 16.7171 157.073 16.2901C157.156 11.5591 156.888 7.93657 157.214 2.97388C158.741 0.686633 159.565 0.658417 162.177 0.40449Z" fill="#2B263F"/>
<path d="M0.0328643 0C8.53078 0.371395 62.4696 -0.50541 65.0134 0.523591C65.3366 1.42292 65.5227 2.75874 65.5178 3.73023C65.4508 16.6387 65.4627 29.5505 65.4598 42.4595C65.4589 46.4852 65.5843 50.4566 65.2991 54.4768C64.8009 64.0927 64.9979 74.3233 64.9992 84.0099L65.0144 146.029C65.015 148.506 65.1287 152.693 64.9363 155.046C52.4846 154.928 40.0322 154.892 27.58 154.936C18.6421 154.938 9.39483 154.828 0.477037 155.057C-0.187539 147.656 0.232346 133.729 0.237013 125.937L0.244991 80.723C0.244639 72.2474 0.413754 63.1874 0.140108 54.7858C-0.160267 36.7142 0.13118 18.1409 0.0328643 0Z" fill="#2B263F"/>
<path d="M0.0328643 0C8.53078 0.371395 62.4696 -0.50541 65.0134 0.523591C65.3366 1.42292 65.5227 2.75874 65.5178 3.73023C65.4508 16.6387 65.4627 29.5505 65.4598 42.4595C65.4589 46.4852 65.5843 50.4566 65.2991 54.4768C59.0835 54.4728 0.97095 54.2172 0.140108 54.7858C-0.160267 36.7142 0.13118 18.1409 0.0328643 0Z" fill="#FF5700"/>
<path d="M402.81 0.772619C403.174 0.52032 463.303 0.270731 467.688 0.649451C467.569 10.3063 467.536 19.9642 467.588 29.6216C467.594 34.6027 467.534 39.5475 467.729 44.5289C468.058 52.9212 482.738 51.469 483.246 44.1339C484.226 30.0342 482.548 14.8664 483.696 0.839357L524.548 0.804361C532.078 0.804632 540.637 0.606046 548.113 0.839626C547.798 4.58342 547.964 8.67799 547.861 12.479C546.914 47.34 518.618 55.3072 489.84 63.5989C494.453 63.9961 499.075 64.2696 503.704 64.419C511.321 64.6966 516.249 64.6013 523.81 66.7358C550.599 74.2994 548.303 100.248 547.983 122.411C547.831 132.962 548.303 144.02 547.931 154.678C536.043 155.15 521.641 154.755 509.568 154.751L494.38 154.771C490.972 154.787 487.485 154.945 484.101 154.645C482.226 152.031 484.695 95.1382 482.912 86.4171C480.299 83.4413 479.683 83.1904 475.846 82.1163C472.633 82.8266 470.749 83.2023 468.266 85.6008C467.184 89.1514 467.572 100.891 467.572 105.362L467.588 137.928C467.591 142.916 467.792 149.84 467.556 154.714C452.782 154.888 437.827 154.75 423.041 154.752L410.191 154.795C408.555 154.803 404.837 154.918 403.388 154.713C402.463 151.757 402.775 139.613 402.775 135.962L402.81 0.772619Z" fill="#2B263F"/>
<path d="M354.279 0.597084C357.267 0.590573 374.384 0.332304 376.468 0.903912C382.908 2.88595 386.965 8.62644 386.748 15.2432C386.612 19.3576 386.778 23.7153 386.772 27.8652L386.748 56.3145L386.77 154.666C369.188 154.419 351.56 154.727 333.973 154.613C330.021 154.588 326.092 154.665 322.138 154.509C321.88 141.686 322.051 128.411 322.06 115.558L322.024 57.8674C322.032 45.9648 322.092 34.0012 321.975 22.0979C321.864 20.9031 321.989 19.009 321.43 17.9447C318.768 12.8754 312.988 13.2587 308.537 15.4507C307.452 16.9149 306.877 18.2822 306.567 20.0784C305.172 28.1786 307.476 76.0937 305.528 78.3972C303.219 78.8223 288.725 78.6183 285.349 78.6162L241.69 78.608C241.327 75.0403 241.456 68.7108 241.458 64.9562L241.485 42.3106L241.471 16.8715C241.469 11.8846 241.331 5.56738 241.746 0.666806C253.146 0.175772 267.955 0.606579 279.615 0.604138L354.279 0.597084Z" fill="#2B263F"/>
</svg>
